<?xml version="1.0" standalone="no"?><!DOCTYPE svg PUBLIC "-//W3C//DTD SVG 1.1//EN" "http://www.w3.org/Graphics/SVG/1.1/DTD/svg11.dtd"><svg t="1582772545062" class="icon" viewBox="0 0 1024 1024" version="1.1" xmlns="http://www.w3.org/2000/svg" p-id="871" xmlns:xlink="http://www.w3.org/1999/xlink" width="500" height="500"><defs><style type="text/css"></style></defs><path d="M752.64 125.952H796.672c62.464 0 109.568 47.104 110.592 109.568v628.736c0 46.08-27.648 86.016-69.632 101.376-14.336 4.096-28.672 7.168-41.984 7.168H227.328c-54.272 0-95.232-32.768-107.52-84.992-2.048-8.192-3.072-15.36-3.072-23.552V234.496c0-61.44 48.128-108.544 109.568-108.544H286.72V92.16c0-20.48 14.336-36.864 34.816-39.936 9.216-1.024 18.432-1.024 27.648 0 17.408 2.048 30.72 19.456 31.744 36.864v36.864h275.456v-32.768c0-22.528 14.336-38.912 36.864-40.96 10.24-1.024 19.456-1.024 28.672 0 16.384 3.072 29.696 19.456 29.696 36.864 1.024 12.288 1.024 23.552 1.024 36.864z m-464.896 65.536c-2.048 0-2.048-1.024-3.072-1.024h-55.296c-28.672 0-46.08 17.408-46.08 46.08v624.64c0 25.6 18.432 46.08 46.08 46.08h565.248c5.12 0 10.24 0 15.36-1.024 20.48-5.12 30.72-21.504 30.72-46.08V238.592v-6.144c-1.024-19.456-12.288-36.864-30.72-39.936s-37.888-2.048-57.344-3.072c-1.024 2.048-1.024 3.072-1.024 3.072v48.128c0 17.408-10.24 31.744-26.624 36.864-10.24 3.072-21.504 3.072-31.744 2.048-22.528-3.072-35.84-19.456-35.84-41.984V196.608c0-2.048 0-4.096-1.024-6.144H380.928v51.2c0 17.408-12.288 33.792-28.672 36.864-9.216 2.048-20.48 2.048-29.696 1.024-22.528-3.072-35.84-19.456-35.84-41.984 1.024-14.336 1.024-29.696 1.024-46.08z" fill="" p-id="872"></path><path d="M649.119744 340.992c-85.960704 0-159.336448 66.16064-168.865792 149.52448-0.415744-21.30944-0.530432 31.197184-0.565248 58.927104-30.590976-28.08832-71.356416-45.42464-115.43552-45.42464h-129.841152v56.076288c9.793536 82.61632 84.502528 149.52448 170.194944 149.52448h54.089728v-37.419008h-56.090624c-49.88928 0.581632-130.834432-55.001088-130.834432-130.832384h93.474816c67.733504 0 130.832384 54.2208 130.832384 130.832384V859.136h37.41696s0.557056-234.020864 0-205.592576a163.19488 163.19488 0 0 0-16.379904-54.71232l0.48128-89.624576c0-76.611584 62.969856-130.830336 130.541568-130.830336h93.259776c0 75.845632-80.822272 131.371008-130.541568 130.830336h-55.957504v37.419008h53.9136c85.52448 0 160.083968-66.893824 169.877504-149.52448V340.992h-129.570816z" fill="" p-id="873"></path></svg>