<?xml version="1.0" standalone="no"?><!DOCTYPE svg PUBLIC "-//W3C//DTD SVG 1.1//EN" "http://www.w3.org/Graphics/SVG/1.1/DTD/svg11.dtd"><svg t="1582772668179" class="icon" viewBox="0 0 1024 1024" version="1.1" xmlns="http://www.w3.org/2000/svg" p-id="5805" xmlns:xlink="http://www.w3.org/1999/xlink" width="500" height="500"><defs><style type="text/css"></style></defs><path d="M979.3 65.9C921.2 6.4 826.5 6.5 768.2 66l-94.3 91c96.4 41.5 175.1 121.2 213.6 216.2l91.7-91.8c58.3-59.6 58.4-156 0.1-215.5z" fill="" p-id="5806"></path><path d="M592.1 174.2c-203.8-55.6-413.9 65.9-477.3 272.7-1.2 3.6-2.4 7.7-3.6 12.3-0.2 0.8-0.4 1.5-0.6 2.3-0.1 0.6-0.4 1.1-0.5 1.7-10 38-14.4 76.3-13.8 113.6-2.1 104.5 13.2 200-95.7 372.5 166.6 85.7 451.5 79.9 640.6-10.5 35.3-15.7 68.3-36.7 97.9-62.2 1.9-1.7 3.7-3.3 5.6-5 0.1-0.1 0.3-0.4 0.5-0.5 2.1-1.9 4.3-3.8 6.4-5.8 1.2-1.2 2.4-2.3 3.6-3.5 0.7-0.6 1.3-1.2 2-1.9 51.3-50 90.3-114.9 110.2-190.2 57-216.6-66.1-438.5-275.3-495.5z" fill="" p-id="5807"></path></svg>