<?xml version="1.0" standalone="no"?><!DOCTYPE svg PUBLIC "-//W3C//DTD SVG 1.1//EN" "http://www.w3.org/Graphics/SVG/1.1/DTD/svg11.dtd"><svg t="1582772624577" class="icon" viewBox="0 0 1024 1024" version="1.1" xmlns="http://www.w3.org/2000/svg" p-id="5408" xmlns:xlink="http://www.w3.org/1999/xlink" width="500" height="500"><defs><style type="text/css"></style></defs><path d="M911.472527 607.648352c-30.007326-48.761905-26.25641-52.512821-26.25641-52.512821s-101.274725 26.25641-120.029304-71.267399h-60.014652s-15.003663 97.52381-120.029304 67.516483l-30.007326 52.512821s82.520147 56.263736 0 135.032967l30.007326 52.51282s90.021978-37.509158 120.029304 67.516484h60.014652s18.754579-97.52381 120.029304-67.516484c26.25641-48.761905 30.007326-52.512821 30.007326-52.51282s-78.769231-60.014652-3.750916-131.282051zM731.428571 746.432234c-37.509158 0-71.267399-30.007326-71.267399-67.516483s30.007326-67.516484 71.267399-67.516484c37.509158 0 71.267399 30.007326 71.2674 67.516484 0 33.758242-30.007326 67.516484-71.2674 67.516483zM660.161172 356.336996c11.252747-11.252747 15.003663-26.25641 15.003663-41.260073 0-15.003663-7.501832-30.007326-18.754579-41.260073l-191.296703-165.040293c-7.501832-7.501832-15.003663-11.252747-26.25641-15.003663-3.750916 0-7.501832-3.750916-15.003663-3.750916-30.007326-3.750916-52.512821 22.505495-52.512821 56.263736v382.593407c-22.505495-11.252747-48.761905-15.003663-71.267399-15.003663-93.772894 0-172.542125 78.769231-172.542124 176.29304s78.769231 176.29304 172.542124 176.29304c82.520147 0 153.787546-60.014652 168.791209-142.534798 3.750916-7.501832 3.750916-11.252747 3.750916-18.754579V258.813187L581.391941 352.586081c26.25641 22.505495 56.263736 22.505495 78.769231 3.750915z m-360.087912 262.564103c41.260073 0 71.267399 37.509158 71.267399 71.267399 0 26.25641-26.25641 71.267399-71.267399 71.267399-41.260073 0-71.267399-37.509158-71.267399-71.267399 0-30.007326 30.007326-71.267399 71.267399-71.267399z m0 0" p-id="5409"></path></svg>