<?xml version="1.0" standalone="no"?><!DOCTYPE svg PUBLIC "-//W3C//DTD SVG 1.1//EN" "http://www.w3.org/Graphics/SVG/1.1/DTD/svg11.dtd"><svg t="1582772587470" class="icon" viewBox="0 0 1024 1024" version="1.1" xmlns="http://www.w3.org/2000/svg" p-id="4657" xmlns:xlink="http://www.w3.org/1999/xlink" width="500" height="500"><defs><style type="text/css"></style></defs><path d="M106.349714 73.874286h727.04a33.060571 33.060571 0 0 1 0 66.121143h-727.04a33.060571 33.060571 0 1 1 0-66.048z m0 204.873143h198.217143a33.060571 33.060571 0 0 1 0 66.121142h-198.217143a33.060571 33.060571 0 0 1 0-66.121142z m0 284.745142H238.445714a33.060571 33.060571 0 0 1 0 66.121143H106.349714a33.060571 33.060571 0 0 1 0-66.121143z m0 284.672h198.217143a33.060571 33.060571 0 0 1 0 66.121143h-198.217143a33.060571 33.060571 0 0 1 0-66.121143z m663.844572 101.668572h-0.731429a71.021714 71.021714 0 0 1-52.297143-22.966857l-6.144-6.948572a60.708571 60.708571 0 0 0-42.422857-16.603428h-0.219428a63.634286 63.634286 0 0 0-44.690286 18.285714l-4.461714 5.266286c-14.774857 16.822857-38.034286 22.893714-53.394286 22.893714a59.684571 59.684571 0 0 1-20.626286-3.657143c-1.901714-0.731429-14.701714-5.851429-42.203428-22.674286a335.725714 335.725714 0 0 1-38.692572-26.697142l-0.512-0.438858a80.384 80.384 0 0 1-21.796571-78.409142l2.706285-9.654858c6.582857-34.377143-13.019429-68.754286-44.982857-78.555428l-6.582857-1.462857c-25.088-6.144-47.469714-30.573714-52.589714-57.344a112.932571 112.932571 0 0 1-2.121143-19.382857 603.648 603.648 0 0 1-0.731429-32.182858c0-27.648 1.462857-44.982857 2.852572-51.858285 4.534857-26.331429 27.062857-50.761143 52.370286-56.832l9.654857-2.340572a63.122286 63.122286 0 0 0 34.669714-30.281143v-0.146285a70.948571 70.948571 0 0 0 6.729143-50.029715l-2.121143-7.168a78.628571 78.628571 0 0 1 0.146286-41.984c3.510857-13.604571 10.752-25.965714 20.918857-35.620571l0.219428-0.219429c12.434286-10.24 25.746286-19.456 39.643429-27.574857a282.331429 282.331429 0 0 1 42.057143-22.528 60.854857 60.854857 0 0 1 21.211428-3.730285c15.945143 0 38.253714 5.997714 53.028572 22.820571l6.875428 7.826286c9.728 9.362286 25.380571 14.921143 41.910858 14.774857a64.804571 64.804571 0 0 0 44.470857-17.115429l4.827428-5.632c19.382857-21.942857 52.662857-27.062857 73.728-19.163428l0.292572 0.073143c3.291429 1.316571 16.164571 6.875429 42.130285 22.674285 22.893714 14.043429 36.132571 23.990857 41.179429 29.037715 19.017143 17.408 27.501714 50.029714 19.821714 76.361142l-2.852571 9.874286a70.948571 70.948571 0 0 0 7.314286 47.250286c8.118857 14.994286 21.138286 25.746286 37.668571 31.158857l6.656 1.609143c12.434286 2.998857 24.576 10.605714 34.377143 21.357714 9.289143 10.313143 15.506286 22.966857 18.066286 35.693714 0.877714 2.925714 1.462857 7.753143 2.048 17.481143 0.438857 6.875429 0.950857 18.358857 0.950857 34.084572 0 24.064-1.243429 44.032-3.218286 52.955428a74.459429 74.459429 0 0 1-52.004571 55.881143l-8.630858 2.194286a64.146286 64.146286 0 0 0-35.913142 30.72 72.045714 72.045714 0 0 0-6.582858 49.956571l2.267429 7.899429c7.168 27.867429-0.950857 57.270857-21.138286 76.653714l-0.658285 0.512c-3.584 3.291429-14.628571 12.288-39.350858 27.428572a298.715429 298.715429 0 0 1-41.984 22.601142l-0.292571 0.073143a58.953143 58.953143 0 0 1-20.845714 3.876572zM668.598857 850.651429a95.085714 95.085714 0 0 1 67.291429 27.428571l0.731428 0.877714 6.509715 7.314286c5.851429 5.851429 13.897143 9.069714 22.235428 9.069714h0.292572a20.187429 20.187429 0 0 0 7.168-1.316571c2.121143-0.877714 12.361143-5.266286 34.523428-18.797714 21.211429-12.946286 30.134857-20.333714 31.963429-21.942858a33.865143 33.865143 0 0 0 8.923428-32.182857l-2.340571-8.045714a110.299429 110.299429 0 0 1 10.020571-78.262857c11.922286-22.893714 32.329143-40.155429 56.758857-48.201143l1.170286-0.365714 9.216-2.340572a31.597714 31.597714 0 0 0 20.918857-21.796571l0.219429-1.024 0.146286-0.877714c0.512-2.340571 1.974857-15.140571 1.974857-41.106286 0-19.748571-0.950857-32.914286-1.462857-37.741714l-0.512-2.852572a32.768 32.768 0 0 0-21.430858-23.917714l-7.606857-1.755429-0.585143-0.219428a100.425143 100.425143 0 0 1-58.806857-48.566857 110.445714 110.445714 0 0 1-10.971428-74.605715v-0.877714l3.291428-11.337143c3.072-10.532571-1.609143-25.380571-7.533714-30.72l-0.950857-0.877714a237.714286 237.714286 0 0 0-32.548572-22.381714 257.462857 257.462857 0 0 0-34.377142-18.651429c-7.021714-2.56-22.381714-0.438857-29.622858 7.753143l-5.558857 6.363428-0.438857 0.512c-36.205714 36.205714-101.083429 37.302857-136.045714 2.194286l-0.877714-0.877714-7.168-8.045714c-5.12-5.851429-15.286857-8.923429-22.674286-8.923429a19.748571 19.748571 0 0 0-7.460572 1.243429c-0.146286 0.073143-10.166857 4.022857-33.938285 18.578285-11.410286 6.582857-22.381714 14.116571-32.621715 22.381715a34.669714 34.669714 0 0 0-8.338285 31.451428l2.413714 8.338286a110.445714 110.445714 0 0 1-10.093714 78.409143c-11.702857 22.381714-31.451429 39.497143-55.369143 47.762285l-0.731429 0.292572-10.971428 2.633143a32.182857 32.182857 0 0 0-21.211429 22.528l-0.146286 0.950857a282.331429 282.331429 0 0 0-1.974857 41.252571c0 18.358857 0.804571 33.206857 1.462857 38.107429l0.073143 0.365714 0.365715 2.194286a32.475429 32.475429 0 0 0 21.357714 23.990857l7.826286 1.901714c50.468571 14.921143 81.408 69.12 70.363428 123.392l-0.146286 0.877715-3.145142 11.190857a35.401143 35.401143 0 0 0 8.996571 32.182857c2.267429 1.828571 11.702857 9.289143 32.036571 21.869714 22.674286 13.897143 33.206857 18.285714 34.157715 18.578286l0.146285 0.073143c2.194286 0.804571 4.388571 1.170286 6.729143 1.170285 7.314286 0 17.993143-3.145143 23.04-8.923428l5.12-5.997714 0.438857-0.438858c18.285714-18.651429 43.373714-29.184 69.485715-29.257142h0.292571z"  p-id="4658"></path><path d="M668.086857 751.616a132.242286 132.242286 0 0 1 0-264.411429 132.242286 132.242286 0 0 1 0 264.411429z m0-210.651429a78.482286 78.482286 0 0 0 0 156.891429 78.482286 78.482286 0 0 0 0-156.891429z"  p-id="4659"></path></svg>